<svg xmlns="http://www.w3.org/2000/svg" width="10" height="24" fill="none"><path d="M2.74 19.395s-1.385-.617-1.768-1.806c-.382-1.188.384-2.498.384-2.498s1.386.618 1.768 1.806c.382 1.189-.384 2.498-.384 2.498Z" fill="url(#a)"/><path d="M3.417 19.679s1.457.422 2.516-.24c1.058-.662 1.317-2.157 1.317-2.157s-1.457-.422-2.515.24c-1.059.662-1.318 2.157-1.318 2.157Z" fill="url(#b)"/><path d="M4.207 15.217s.142-1.51-.706-2.427c-.847-.916-2.364-.892-2.364-.892s-.143 1.51.705 2.427 2.365.892 2.365.892Z" fill="url(#c)"/><path d="M4.453 6.953S2.605 6.13 2.096 4.546c-.733-2.278.28-4.048.28-4.048s2.344.66 3.085 2.965c.742 2.305-1.008 3.49-1.008 3.49Z" fill="url(#d)"/><path d="M5.194 10.864s2.353-.03 3.626-1.488c1.274-1.458.986-3.793.986-3.793S7.453 5.612 6.18 7.07c-1.274 1.459-.986 3.794-.986 3.794Z" fill="url(#e)"/><path d="M4.516 10.822s.189-2.014-.942-3.235C2.444 6.366.421 6.399.421 6.399s-.19 2.014.942 3.236c1.13 1.221 3.153 1.187 3.153 1.187Z" fill="url(#f)"/><path d="M4.68 15.337s1.989.366 3.305-.653c1.317-1.019 1.461-3.036 1.461-3.036s-1.99-.366-3.305.653c-1.317 1.018-1.462 3.036-1.462 3.036Z" fill="url(#g)"/><path fill-rule="evenodd" clip-rule="evenodd" d="M3.687 3.167c-.205.034.51 4.06.544 4.264.59 3.547.394 9.795-3.33 15.285a.384.384 0 0 0 .08.518c.17.132.415.095.536-.083C5.39 17.453 5.584 10.978 4.975 7.308c-.034-.205-1.083-4.175-1.288-4.141Z" fill="url(#h)"/><defs><linearGradient id="a" x1="6.3" y1="3.033" x2=".32" y2="12.801" gradientUnits="userSpaceOnUse"><stop stop-color="#FFD25E"/><stop offset="1" stop-color="#B59646"/></linearGradient><linearGradient id="b" x1="6.3" y1="3.033" x2=".32" y2="12.801" gradientUnits="userSpaceOnUse"><stop stop-color="#FFD25E"/><stop offset="1" stop-color="#B59646"/></linearGradient><linearGradient id="c" x1="6.3" y1="3.033" x2=".32" y2="12.801" gradientUnits="userSpaceOnUse"><stop stop-color="#FFD25E"/><stop offset="1" stop-color="#B59646"/></linearGradient><linearGradient id="d" x1="6.3" y1="3.033" x2=".32" y2="12.801" gradientUnits="userSpaceOnUse"><stop stop-color="#FFD25E"/><stop offset="1" stop-color="#B59646"/></linearGradient><linearGradient id="e" x1="6.3" y1="3.033" x2=".32" y2="12.801" gradientUnits="userSpaceOnUse"><stop stop-color="#FFD25E"/><stop offset="1" stop-color="#B59646"/></linearGradient><linearGradient id="f" x1="6.3" y1="3.033" x2=".32" y2="12.801" gradientUnits="userSpaceOnUse"><stop stop-color="#FFD25E"/><stop offset="1" stop-color="#B59646"/></linearGradient><linearGradient id="g" x1="6.3" y1="3.033" x2=".32" y2="12.801" gradientUnits="userSpaceOnUse"><stop stop-color="#FFD25E"/><stop offset="1" stop-color="#B59646"/></linearGradient><linearGradient id="h" x1="6.3" y1="3.033" x2=".32" y2="12.801" gradientUnits="userSpaceOnUse"><stop stop-color="#FFD25E"/><stop offset="1" stop-color="#B59646"/></linearGradient></defs></svg>
